D:\school\WTK\thesis\model\3dpredictsim\Results\Batchsim_tmt_linear_v2\Pog_s1_tmt_bCst_d05_k2000_ig24_pas_GRF.mot
nRows=17
nColumns=19

name D:\school\WTK\thesis\model\3dpredictsim\Results\Batchsim_tmt_linear_v2\Pog_s1_tmt_bCst_d05_k2000_ig24_pas_GRF.mot
datacolumns 19
datarows 17
range 0.0000000000 0.1715758573
endheader
time 	ground_force_vx	ground_force_vy	ground_force_vz	ground_force_px	ground_force_py	ground_force_pz	1_ground_force_vx	1_ground_force_vy	1_ground_force_vz	1_ground_force_px	1_ground_force_py	1_ground_force_pz	ground_torque_x	ground_torque_y	ground_torque_z	1_ground_torque_x	1_ground_torque_y	1_ground_torque_z
        0.0000000000	      -61.5029042264	       42.5918113834	       10.2355391236	        0.1590469624	        0.0000000000	        0.0471539854	      124.2853111440	      519.4610940615	        4.4030904145	       -0.3462577505	        0.0000000000	       -0.0489463974	        0.0000000000	        0.0000000000	        0.0000000000	        0.0000000000	        0.0000000000	        0.0000000000	
        0.0107234911	     -113.7332500915	       97.0568288606	       25.3509604863	        0.1696777963	        0.0000000000	        0.0453354379	       97.9548317001	      431.5087607782	       -0.7222720769	       -0.3359138417	        0.0000000000	       -0.0475770225	        0.0000000000	        0.0000000000	        0.0000000000	        0.0000000000	        0.0000000000	        0.0000000000	
        0.0214469822	     -114.6575101172	      209.8023483560	       47.5050390379	        0.1766824628	        0.0000000000	        0.0443807411	       63.9500683801	      330.4821137510	       -6.4586911727	       -0.3194147630	        0.0000000000	       -0.0450309955	        0.0000000000	        0.0000000000	        0.0000000000	        0.0000000000	        0.0000000000	        0.0000000000	
        0.0321704732	      -61.0147150078	      382.4625098373	        7.3062625459	        0.1816570132	        0.0000000000	        0.0436555166	       29.6051884289	      233.2541122247	       -6.0876372444	       -0.2940021822	        0.0000000000	       -0.0405617023	        0.0000000000	        0.0000000000	        0.0000000000	        0.0000000000	        0.0000000000	        0.0000000000	
        0.0428939643	      -72.9902295162	      594.6351533166	       -6.9761692470	        0.1901505435	        0.0000000000	        0.0458384631	        7.1248524389	      160.1593441928	       -9.0077977366	       -0.2640533023	        0.0000000000	       -0.0333381981	        0.0000000000	        0.0000000000	        0.0000000000	        0.0000000000	        0.0000000000	        0.0000000000	
        0.0536174554	     -111.3528075573	      800.2698424379	      -14.6232745190	        0.1986615650	        0.0000000000	        0.0483954003	       -0.4695886420	      133.8479037491	      -12.2792460571	       -0.2607226932	        0.0000000000	       -0.0324707639	        0.0000000000	        0.0000000000	        0.0000000000	        0.0000000000	        0.0000000000	        0.0000000000	
        0.0643409465	     -127.2328681593	      903.0598167529	      -18.0195425454	        0.2044324267	        0.0000000000	        0.0499803697	       -1.4488477093	      100.6980720902	      -14.1003639297	       -0.2601460872	        0.0000000000	       -0.0326930512	        0.0000000000	        0.0000000000	        0.0000000000	        0.0000000000	        0.0000000000	        0.0000000000	
        0.0750644376	     -123.8970288841	      908.3760249418	      -18.4398339956	        0.2086549908	        0.0000000000	        0.0510158506	       -4.6580573416	       64.2069800920	      -13.1255305731	       -0.2597123250	        0.0000000000	       -0.0328216851	        0.0000000000	        0.0000000000	        0.0000000000	        0.0000000000	        0.0000000000	        0.0000000000	
        0.0857879287	     -113.4841917393	      871.0047418324	      -17.9065063910	        0.2122949391	        0.0000000000	        0.0517658976	       -8.8961138920	       26.2532849509	       -6.4748910115	       -0.2601261807	        0.0000000000	       -0.0324756609	        0.0000000000	        0.0000000000	        0.0000000000	        0.0000000000	        0.0000000000	        0.0000000000	
        0.0965114197	     -100.9879025235	      831.6066887720	      -16.2683688374	        0.2161407974	        0.0000000000	        0.0524002701	        0.1571219100	       -0.1561328833	        0.0132262259	        0.0000000000	        0.0000000000	        0.0000000000	        0.0000000000	        0.0000000000	        0.0000000000	        0.0000000000	        0.0000000000	        0.0000000000	
        0.1072349108	      -92.0276231884	      806.4020759656	      -17.3121295780	        0.2212773950	        0.0000000000	        0.0530643815	        0.0005965287	       -0.0004880476	       -0.0000022433	        0.0000000000	        0.0000000000	        0.0000000000	        0.0000000000	        0.0000000000	        0.0000000000	        0.0000000000	        0.0000000000	        0.0000000000	
        0.1179584019	      -84.8316247866	      783.7693104649	      -17.2934215361	        0.2275016680	        0.0000000000	        0.0532725025	        0.0002155963	       -0.0001533250	       -0.0000051235	        0.0000000000	        0.0000000000	        0.0000000000	        0.0000000000	        0.0000000000	        0.0000000000	        0.0000000000	        0.0000000000	        0.0000000000	
        0.1286818930	      -76.5012551367	      748.7278626163	      -17.0623731109	        0.2335301532	        0.0000000000	        0.0533653641	        0.0014173385	       -0.0009036936	       -0.0000456529	        0.0000000000	        0.0000000000	        0.0000000000	        0.0000000000	        0.0000000000	        0.0000000000	        0.0000000000	        0.0000000000	        0.0000000000	
        0.1394053841	      -68.5002392480	      712.3085290133	      -16.7023496011	        0.2394954970	        0.0000000000	        0.0533293348	        0.0079856880	       -0.0046668942	       -0.0002907139	        0.0000000000	        0.0000000000	        0.0000000000	        0.0000000000	        0.0000000000	        0.0000000000	        0.0000000000	        0.0000000000	        0.0000000000	
        0.1501288751	      -60.8875626075	      681.1231927007	      -16.6017155083	        0.2453238510	        0.0000000000	        0.0532631267	       -0.0573325008	        0.0311953239	        0.0022397593	        0.0000000000	        0.0000000000	        0.0000000000	        0.0000000000	        0.0000000000	        0.0000000000	        0.0000000000	        0.0000000000	        0.0000000000	
        0.1608523662	      -53.7237984072	      656.2241784073	      -17.0182439278	        0.2508448076	        0.0000000000	        0.0531951880	       -0.0409836698	        0.0209960956	        0.0016887456	        0.0000000000	        0.0000000000	        0.0000000000	        0.0000000000	        0.0000000000	        0.0000000000	        0.0000000000	        0.0000000000	        0.0000000000	
        0.1715758573	      -47.3050513012	      637.1787451894	      -17.4350414768	        0.2560494592	        0.0000000000	        0.0531158054	       -0.0289529293	        0.0140863890	        0.0012404038	        0.0000000000	        0.0000000000	        0.0000000000	        0.0000000000	        0.0000000000	        0.0000000000	        0.0000000000	        0.0000000000	        0.0000000000	
